<svg width="50" height="50" viewBox="0 0 50 50" fill="none" xmlns="http://www.w3.org/2000/svg">
<g clip-path="url(#clip0_415_582)">
<path d="M50 25C50 38.807 38.807 50 25 50C11.193 50 0 38.807 0 25C0 25.006 25 0.00273438 25 0C38.807 0 50 11.193 50 25Z" fill="#0052B4"/>
<path d="M24.9331 25H25C25 24.9775 25 24.9557 25 24.9331C24.9777 24.9555 24.9555 24.9777 24.9331 25Z" fill="#F0F0F0"/>
<path d="M25 13.0435C25 8.64453 25 5.76221 25 0H24.9958C11.1905 0.00234375 0 11.1942 0 25H13.0435V17.6552L20.3883 25H24.9332C24.9555 24.9777 24.9777 24.9555 25.0001 24.9331C25.0001 23.2488 25.0001 21.746 25.0001 20.3885L17.6551 13.0435H25Z" fill="#F0F0F0"/>
<path d="M12.648 3.26086C8.73791 5.48733 5.48723 8.73791 3.26086 12.648V25H9.78264V9.78284V9.78264H25C25 7.72571 25 5.76614 25 3.26086H12.648Z" fill="#D80027"/>
<path d="M25 21.9257L16.1177 13.0436H13.0435V13.0438L24.9998 25H25C25 25 25 22.8802 25 21.9257V21.9257Z" fill="#D80027"/>
<path d="M42.2792 28.6596C42.9981 27.6705 43.4782 26.4627 43.4782 25V14.1305C42.5698 14.8129 41.4409 15.2174 40.2174 15.2174C38.4395 15.2174 36.8611 14.3636 35.8696 13.0436C34.878 14.3636 33.2995 15.2174 31.5217 15.2174C30.2981 15.2174 29.1692 14.8128 28.2609 14.1307V25C28.2609 26.4627 28.741 27.6705 29.4599 28.6596H42.2792Z" fill="#F3F3F3"/>
<path d="M40.0181 22.9835C40.3642 22.1392 40.6333 20.9051 40.6333 20.2909C40.6333 19.3041 39.3468 18.5042 39.3468 18.5042C39.3468 18.5042 38.0603 19.3041 38.0603 20.2909C38.0603 20.9052 38.3295 22.1393 38.6754 22.9835L37.9327 24.6604C38.3693 24.8379 38.8464 24.9365 39.3469 24.9365C39.8474 24.9365 40.3244 24.8378 40.7611 24.6604L40.0181 22.9835Z" fill="#FF9811"/>
<path d="M34.9896 17.5539C34.0857 17.6764 32.8823 18.0607 32.3505 18.3677C31.4959 18.8612 31.4463 20.3751 31.4463 20.3751C31.4463 20.3751 32.7824 21.0893 33.6369 20.5959C34.1689 20.2888 35.1029 19.4388 35.6608 18.7169L37.4847 18.5216C37.4201 18.055 37.2666 17.5924 37.0167 17.1591C36.7663 16.7258 36.4426 16.3617 36.0705 16.0724L34.9896 17.5539Z" fill="#FF9811"/>
<path d="M32.802 24.6236C33.3599 25.3451 34.2942 26.195 34.8262 26.5022C35.6808 26.9956 37.0168 26.2816 37.0168 26.2816C37.0168 26.2816 36.967 24.7675 36.1126 24.274C35.5805 23.9669 34.3773 23.583 33.4732 23.4607L32.3924 21.979C32.0205 22.2683 31.6966 22.6325 31.4463 23.0654C31.1962 23.4989 31.0431 23.9613 30.9783 24.4282L32.802 24.6236Z" fill="#FF9811"/>
<path d="M29.191 28.2611C31.2211 31.5184 35.8697 32.6088 35.8697 32.6088C35.8697 32.6088 40.5181 31.5184 42.5483 28.2611H29.191Z" fill="#338AF3"/>
</g>
<defs>
<clipPath id="clip0_415_582">
<rect width="50" height="50" fill="white"/>
</clipPath>
</defs>
</svg>
